<svg xmlns="http://www.w3.org/2000/svg" width="1440" height="920" viewBox="0 0 1440 920">
  <title>When to Fine-Tune: Decision Flowchart</title>
  <defs>
      <marker id="arrow-e03131" viewBox="0 0 10 10" refX="10" refY="5" markerWidth="8" markerHeight="8" orient="auto"><path d="M 0 0 L 10 5 L 0 10 z" fill="#e03131"/></marker>
      <marker id="arrow-2f9e44" viewBox="0 0 10 10" refX="10" refY="5" markerWidth="8" markerHeight="8" orient="auto"><path d="M 0 0 L 10 5 L 0 10 z" fill="#2f9e44"/></marker>
  </defs>
  <rect width="100%" height="100%" fill="white"/>
    <text x="370.0" y="58.0" font-size="28" fill="#1e1e1e" font-family="'Courier New',monospace" opacity="1.0">When to Fine-Tune: Decision Flowchart</text>
    <polygon points="610.0,90.0 800.0,170.0 610.0,250.0 420.0,170.0" fill="#a5d8ff" stroke="#1971c2" stroke-width="2" opacity="1.0"/>
    <text x="502.8" y="157.4" font-size="16" fill="#1e1e1e" font-family="'Courier New',monospace" opacity="1.0">Does the base model</text>
    <text x="502.8" y="178.2" font-size="16" fill="#1e1e1e" font-family="'Courier New',monospace" opacity="1.0">already know the answer?</text>
    <path d="M 515.0,250.0 L 315.0,350.0" stroke="#2f9e44" stroke-width="2" fill="none" marker-end="url(#arrow-2f9e44)" opacity="1.0"/>
    <text x="400.0" y="284.0" font-size="14" fill="#2f9e44" font-family="'Courier New',monospace" opacity="1.0">YES</text>
    <path d="M 705.0,250.0 L 905.0,350.0" stroke="#e03131" stroke-width="2" fill="none" marker-end="url(#arrow-e03131)" opacity="1.0"/>
    <text x="790.0" y="284.0" font-size="14" fill="#e03131" font-family="'Courier New',monospace" opacity="1.0">NO</text>
    <polygon points="300.0,350.0 470.0,425.0 300.0,500.0 130.0,425.0" fill="#a5d8ff" stroke="#1971c2" stroke-width="2" opacity="1.0"/>
    <text x="218.0" y="417.6" font-size="14" fill="#1e1e1e" font-family="'Courier New',monospace" opacity="1.0">Is the format/tone/</text>
    <text x="218.0" y="435.8" font-size="14" fill="#1e1e1e" font-family="'Courier New',monospace" opacity="1.0">structure wrong?</text>
    <polygon points="920.0,350.0 1110.0,425.0 920.0,500.0 730.0,425.0" fill="#a5d8ff" stroke="#1971c2" stroke-width="2" opacity="1.0"/>
    <text x="818.0" y="417.6" font-size="14" fill="#1e1e1e" font-family="'Courier New',monospace" opacity="1.0">Is the missing knowledge</text>
    <text x="818.0" y="435.8" font-size="14" fill="#1e1e1e" font-family="'Courier New',monospace" opacity="1.0">in retrievable documents?</text>
    <path d="M 230.0,500.0 L 150.0,570.0" stroke="#2f9e44" stroke-width="2" fill="none" marker-end="url(#arrow-2f9e44)" opacity="1.0"/>
    <text x="160.0" y="529.0" font-size="14" fill="#2f9e44" font-family="'Courier New',monospace" opacity="1.0">YES</text>
    <rect x="30.0" y="580.0" width="200.0" height="50.0" fill="#b2f2bb" stroke="#2f9e44" stroke-width="2" rx="0" opacity="1.0"/>
    <text x="60.1" y="603.3" font-size="13" fill="#1e1e1e" font-family="'Courier New',monospace" opacity="1.0">Prompt Engineering</text>
    <text x="60.1" y="620.2" font-size="13" fill="#1e1e1e" font-family="'Courier New',monospace" opacity="1.0">(try this first)</text>
    <path d="M 370.0,500.0 L 450.0,570.0" stroke="#e03131" stroke-width="2" fill="none" marker-end="url(#arrow-e03131)" opacity="1.0"/>
    <text x="410.0" y="529.0" font-size="14" fill="#e03131" font-family="'Courier New',monospace" opacity="1.0">NO</text>
    <rect x="380.0" y="580.0" width="150.0" height="50.0" fill="#d0bfff" stroke="#7048e8" stroke-width="2" rx="0" opacity="1.0"/>
    <text x="403.0" y="609.2" font-size="14" fill="#1e1e1e" font-family="'Courier New',monospace" opacity="1.0">You&#x27;re done ✓</text>
    <path d="M 830.0,500.0 L 750.0,570.0" stroke="#2f9e44" stroke-width="2" fill="none" marker-end="url(#arrow-2f9e44)" opacity="1.0"/>
    <text x="755.0" y="529.0" font-size="14" fill="#2f9e44" font-family="'Courier New',monospace" opacity="1.0">YES</text>
    <rect x="670.0" y="580.0" width="160.0" height="50.0" fill="#ffec99" stroke="#e8590c" stroke-width="2" rx="0" opacity="1.0"/>
    <text x="732.5" y="609.6" font-size="16" fill="#1e1e1e" font-family="'Courier New',monospace" opacity="1.0">RAG</text>
    <path d="M 1010.0,500.0 L 1090.0,570.0" stroke="#e03131" stroke-width="2" fill="none" marker-end="url(#arrow-e03131)" opacity="1.0"/>
    <text x="1050.0" y="529.0" font-size="14" fill="#e03131" font-family="'Courier New',monospace" opacity="1.0">NO</text>
    <polygon points="1100.0,580.0 1290.0,655.0 1100.0,730.0 910.0,655.0" fill="#a5d8ff" stroke="#1971c2" stroke-width="2" opacity="1.0"/>
    <text x="1014.5" y="647.2" font-size="14" fill="#1e1e1e" font-family="'Courier New',monospace" opacity="1.0">Is it about behavior/</text>
    <text x="1014.5" y="665.4" font-size="14" fill="#1e1e1e" font-family="'Courier New',monospace" opacity="1.0">style/domain language?</text>
    <path d="M 1010.0,730.0 L 930.0,800.0" stroke="#2f9e44" stroke-width="2" fill="none" marker-end="url(#arrow-2f9e44)" opacity="1.0"/>
    <text x="940.0" y="759.0" font-size="14" fill="#2f9e44" font-family="'Courier New',monospace" opacity="1.0">YES</text>
    <rect x="850.0" y="810.0" width="170.0" height="50.0" fill="#ffc9c9" stroke="#e03131" stroke-width="2" rx="0" opacity="1.0"/>
    <text x="879.9" y="841.1" font-size="16" fill="#1e1e1e" font-family="'Courier New',monospace" opacity="1.0">Fine-Tuning</text>
    <path d="M 1190.0,730.0 L 1270.0,800.0" stroke="#e03131" stroke-width="2" fill="none" marker-end="url(#arrow-e03131)" opacity="1.0"/>
    <text x="1230.0" y="759.0" font-size="14" fill="#e03131" font-family="'Courier New',monospace" opacity="1.0">NO</text>
    <rect x="1170.0" y="810.0" width="210.0" height="50.0" fill="#e9ecef" stroke="#495057" stroke-width="2" rx="0" opacity="1.0"/>
    <text x="1178.9" y="839.6" font-size="14" fill="#1e1e1e" font-family="'Courier New',monospace" opacity="1.0">Re-evaluate the problem</text>
</svg>