<svg xmlns="http://www.w3.org/2000/svg" width="944" height="255" viewBox="0 0 944 255">
  <title>Vision Language Model Architecture</title>
  <defs>
      <marker id="arrow-1e1e1e" viewBox="0 0 10 10" refX="10" refY="5" markerWidth="8" markerHeight="8" orient="auto"><path d="M 0 0 L 10 5 L 0 10 z" fill="#1e1e1e"/></marker>
      <marker id="arrow-2f9e44" viewBox="0 0 10 10" refX="10" refY="5" markerWidth="8" markerHeight="8" orient="auto"><path d="M 0 0 L 10 5 L 0 10 z" fill="#2f9e44"/></marker>
  </defs>
  <rect width="100%" height="100%" fill="white"/>
    <text x="108.3" y="58.0" font-size="28" fill="#1e1e1e" font-family="'Courier New',monospace" opacity="1.0">Vision Language Model Architecture</text>
    <rect x="30.0" y="89.9" width="100.0" height="45.0" fill="#a5d8ff" stroke="#1971c2" stroke-width="2" rx="0" opacity="1.0"/>
    <text x="50.0" y="115.9" font-size="14" fill="#1e1e1e" font-family="'Courier New',monospace" opacity="1.0">Image</text>
    <path d="M 130.0,111.9 L 170.0,111.9" stroke="#1e1e1e" stroke-width="2" fill="none" marker-end="url(#arrow-1e1e1e)" opacity="1.0"/>
    <rect x="180.0" y="89.9" width="160.0" height="45.0" fill="#d0bfff" stroke="#7048e8" stroke-width="2" rx="0" opacity="1.0"/>
    <text x="195.0" y="114.9" font-size="13" fill="#1e1e1e" font-family="'Courier New',monospace" opacity="1.0">Vision Encoder</text>
    <path d="M 340.0,111.9 L 380.0,111.9" stroke="#1e1e1e" stroke-width="2" fill="none" marker-end="url(#arrow-1e1e1e)" opacity="1.0"/>
    <rect x="390.0" y="89.9" width="180.0" height="45.0" fill="#ffec99" stroke="#e8590c" stroke-width="2" rx="0" opacity="1.0"/>
    <text x="410.0" y="114.9" font-size="13" fill="#1e1e1e" font-family="'Courier New',monospace" opacity="1.0">Projection Layer</text>
    <path d="M 570.2,111.9 L 613.9,112.0" stroke="#1e1e1e" stroke-width="2" fill="none" marker-end="url(#arrow-1e1e1e)" opacity="1.0"/>
    <rect x="624.1" y="89.9" width="136.6" height="95.9" fill="#b2f2bb" stroke="#2f9e44" stroke-width="2" rx="0" opacity="1.0"/>
    <text x="671.9" y="140.5" font-size="18" fill="#1e1e1e" font-family="'Courier New',monospace" opacity="1.0">LLM</text>
    <rect x="30.0" y="149.9" width="100.0" height="45.0" fill="#a5d8ff" stroke="#1971c2" stroke-width="2" rx="0" opacity="1.0"/>
    <text x="55.0" y="175.9" font-size="14" fill="#1e1e1e" font-family="'Courier New',monospace" opacity="1.0">Text</text>
    <path d="M 130.0,171.9 L 170.0,171.9" stroke="#1e1e1e" stroke-width="2" fill="none" marker-end="url(#arrow-1e1e1e)" opacity="1.0"/>
    <rect x="180.0" y="149.9" width="120.0" height="45.0" fill="#d0bfff" stroke="#7048e8" stroke-width="2" rx="0" opacity="1.0"/>
    <text x="200.0" y="174.9" font-size="13" fill="#1e1e1e" font-family="'Courier New',monospace" opacity="1.0">Tokenizer</text>
    <path d="M 300.0,171.9 L 340.0,171.9" stroke="#1e1e1e" stroke-width="2" fill="none" marker-end="url(#arrow-1e1e1e)" opacity="1.0"/>
    <rect x="350.0" y="149.9" width="140.0" height="45.0" fill="#ffec99" stroke="#e8590c" stroke-width="2" rx="0" opacity="1.0"/>
    <text x="375.0" y="174.9" font-size="13" fill="#1e1e1e" font-family="'Courier New',monospace" opacity="1.0">Embedding</text>
    <path d="M 490.0,171.9 L 615.0,171.9" stroke="#1e1e1e" stroke-width="2" fill="none" marker-end="url(#arrow-1e1e1e)" opacity="1.0"/>
    <path d="M 766.8,132.4 L 816.8,132.4" stroke="#2f9e44" stroke-width="2" fill="none" marker-end="url(#arrow-2f9e44)" opacity="1.0"/>
    <text x="826.8" y="138.4" font-size="16" fill="#2f9e44" font-family="'Courier New',monospace" opacity="1.0">Output</text>
</svg>