<svg xmlns="http://www.w3.org/2000/svg" width="745" height="524" viewBox="0 0 745 524">
  <title>20-four-stage-pipeline</title>
  <defs>
      <marker id="arrow-22c55e" viewBox="0 0 10 10" refX="10" refY="5" markerWidth="8" markerHeight="8" orient="auto"><path d="M 0 0 L 10 5 L 0 10 z" fill="#22c55e"/></marker>
      <marker id="arrow-4a9eed" viewBox="0 0 10 10" refX="10" refY="5" markerWidth="8" markerHeight="8" orient="auto"><path d="M 0 0 L 10 5 L 0 10 z" fill="#4a9eed"/></marker>
  </defs>
  <rect width="100%" height="100%" fill="white"/>
    <text x="68.3" y="52.0" font-size="22" fill="#1e1e1e" font-family="'Courier New',monospace" opacity="1.0">RAG Pipeline — Where Embedding Quality Matters</text>
    <text x="30.4" y="99.4" font-size="12" fill="#757575" font-family="'Courier New',monospace" opacity="1.0">INDEXING:</text>
    <rect x="104.6" y="79.8" width="100.0" height="32.0" fill="#a5d8ff" stroke="#4a9eed" stroke-width="1.5" rx="0" opacity="1.0"/>
    <text x="114.6" y="100.8" font-size="13" fill="#1e1e1e" font-family="'Courier New',monospace" opacity="1.0">Data</text>
    <path d="M 204.6,95.8 L 232.6,95.8" stroke="#4a9eed" stroke-width="2" fill="none" marker-end="url(#arrow-4a9eed)" opacity="1.0"/>
    <rect x="234.6" y="79.8" width="100.0" height="32.0" fill="#b2f2bb" stroke="#22c55e" stroke-width="1.5" rx="0" opacity="1.0"/>
    <text x="244.6" y="100.8" font-size="13" fill="#1e1e1e" font-family="'Courier New',monospace" opacity="1.0">Chunks</text>
    <path d="M 334.6,95.8 L 362.6,95.8" stroke="#4a9eed" stroke-width="2" fill="none" marker-end="url(#arrow-4a9eed)" opacity="1.0"/>
    <rect x="364.6" y="79.8" width="100.0" height="32.0" fill="#fff3bf" stroke="#f59e0b" stroke-width="1.5" rx="0" opacity="1.0"/>
    <text x="374.6" y="100.8" font-size="13" fill="#1e1e1e" font-family="'Courier New',monospace" opacity="1.0">Embeddings</text>
    <path d="M 464.6,95.8 L 492.6,95.8" stroke="#4a9eed" stroke-width="2" fill="none" marker-end="url(#arrow-4a9eed)" opacity="1.0"/>
    <rect x="494.6" y="79.8" width="100.0" height="32.0" fill="#d0bfff" stroke="#8b5cf6" stroke-width="1.5" rx="0" opacity="1.0"/>
    <text x="504.6" y="100.8" font-size="13" fill="#1e1e1e" font-family="'Courier New',monospace" opacity="1.0">Vector DB</text>
    <text x="30.0" y="154.6" font-size="12" fill="#757575" font-family="'Courier New',monospace" opacity="1.0">QUERY:</text>
    <rect x="104.6" y="134.8" width="80.0" height="32.0" fill="#a5d8ff" stroke="#4a9eed" stroke-width="1.5" rx="0" opacity="1.0"/>
    <text x="109.6" y="153.8" font-size="11" fill="#1e1e1e" font-family="'Courier New',monospace" opacity="1.0">User Query</text>
    <path d="M 184.6,150.8 L 202.6,150.8" stroke="#22c55e" stroke-width="2" fill="none" marker-end="url(#arrow-22c55e)" opacity="1.0"/>
    <rect x="204.6" y="134.8" width="80.0" height="32.0" fill="#fff3bf" stroke="#f59e0b" stroke-width="1.5" rx="0" opacity="1.0"/>
    <text x="209.6" y="153.8" font-size="11" fill="#1e1e1e" font-family="'Courier New',monospace" opacity="1.0">Embedding</text>
    <path d="M 284.6,150.8 L 302.6,150.8" stroke="#22c55e" stroke-width="2" fill="none" marker-end="url(#arrow-22c55e)" opacity="1.0"/>
    <rect x="304.6" y="134.8" width="80.0" height="32.0" fill="#b2f2bb" stroke="#22c55e" stroke-width="1.5" rx="0" opacity="1.0"/>
    <text x="309.6" y="153.8" font-size="11" fill="#1e1e1e" font-family="'Courier New',monospace" opacity="1.0">Search</text>
    <path d="M 384.6,150.8 L 402.6,150.8" stroke="#22c55e" stroke-width="2" fill="none" marker-end="url(#arrow-22c55e)" opacity="1.0"/>
    <rect x="404.6" y="134.8" width="80.0" height="32.0" fill="#d0bfff" stroke="#8b5cf6" stroke-width="1.5" rx="0" opacity="1.0"/>
    <text x="409.6" y="153.8" font-size="11" fill="#1e1e1e" font-family="'Courier New',monospace" opacity="1.0">Context</text>
    <path d="M 484.6,150.8 L 502.6,150.8" stroke="#22c55e" stroke-width="2" fill="none" marker-end="url(#arrow-22c55e)" opacity="1.0"/>
    <rect x="504.6" y="134.8" width="80.0" height="32.0" fill="#ffc9c9" stroke="#ef4444" stroke-width="1.5" rx="0" opacity="1.0"/>
    <text x="509.6" y="153.8" font-size="11" fill="#1e1e1e" font-family="'Courier New',monospace" opacity="1.0">LLM</text>
    <path d="M 584.6,150.8 L 602.6,150.8" stroke="#22c55e" stroke-width="2" fill="none" marker-end="url(#arrow-22c55e)" opacity="1.0"/>
    <rect x="604.6" y="134.8" width="80.0" height="32.0" fill="#b2f2bb" stroke="#22c55e" stroke-width="1.5" rx="0" opacity="1.0"/>
    <text x="609.6" y="153.8" font-size="11" fill="#1e1e1e" font-family="'Courier New',monospace" opacity="1.0">Response</text>
    <text x="107.4" y="386.6" font-size="24" fill="#1e1e1e" font-family="'Courier New',monospace" opacity="1.0">Complete 4-Stage Fine-Tuning Pipeline</text>
    <rect x="157.8" y="404.1" width="420.0" height="60.0" fill="#a5d8ff" stroke="#4a9eed" stroke-width="2" rx="0" opacity="1.0"/>
</svg>