<svg xmlns="http://www.w3.org/2000/svg" viewBox="30 9677.203125 1150 266.546875" width="1150" height="266.546875">
<rect x="30" y="9677.203125" width="1150" height="266.546875" fill="#ffffff" />
<text x="339.95703125" y="9735.203125" font-size="28" font-family="monospace" fill="#1e1e1e">Embedding Benchmark Pipeline</text>
<rect x="60" y="9770" width="130" height="70" fill="#a5d8ff" stroke="#1971c2" stroke-width="2" rx="8" />
<text x="70" y="9796.0" font-size="14" font-family="monospace" fill="#1971c2">PDF / HTML</text>
<text x="70" y="9813.5" font-size="14" font-family="monospace" fill="#1971c2">Documents</text>
<defs><marker id="ah_92576" markerWidth="10" markerHeight="7" refX="10" refY="3.5" orient="auto"><polygon points="0 0,10 3.5,0 7" fill="#495057" /></marker></defs>
<polyline points="190,9805 220,9805" fill="none" stroke="#495057" stroke-width="2" marker-end="url(#ah_92576)" />
<rect x="220" y="9770" width="130" height="70" fill="#d0bfff" stroke="#6741d9" stroke-width="2" rx="8" />
<text x="230" y="9796.0" font-size="14" font-family="monospace" fill="#6741d9">Text</text>
<text x="230" y="9813.5" font-size="14" font-family="monospace" fill="#6741d9">Extraction</text>
<defs><marker id="ah_93984" markerWidth="10" markerHeight="7" refX="10" refY="3.5" orient="auto"><polygon points="0 0,10 3.5,0 7" fill="#495057" /></marker></defs>
<polyline points="350,9805 380,9805" fill="none" stroke="#495057" stroke-width="2" marker-end="url(#ah_93984)" />
<rect x="380" y="9770" width="130" height="70" fill="#b2f2bb" stroke="#2f9e44" stroke-width="2" rx="8" />
<text x="390" y="9796.0" font-size="14" font-family="monospace" fill="#2f9e44">Semantic</text>
<text x="390" y="9813.5" font-size="14" font-family="monospace" fill="#2f9e44">Chunks</text>
<defs><marker id="ah_95392" markerWidth="10" markerHeight="7" refX="10" refY="3.5" orient="auto"><polygon points="0 0,10 3.5,0 7" fill="#495057" /></marker></defs>
<polyline points="510,9805 540,9805" fill="none" stroke="#495057" stroke-width="2" marker-end="url(#ah_95392)" />
<rect x="540" y="9770" width="130" height="70" fill="#ffec99" stroke="#e8590c" stroke-width="2" rx="8" />
<text x="550" y="9796.0" font-size="14" font-family="monospace" fill="#e8590c">QA Generation</text>
<text x="550" y="9813.5" font-size="14" font-family="monospace" fill="#e8590c">(LLM)</text>
<defs><marker id="ah_13248" markerWidth="10" markerHeight="7" refX="10" refY="3.5" orient="auto"><polygon points="0 0,10 3.5,0 7" fill="#495057" /></marker></defs>
<polyline points="670,9805 700,9805" fill="none" stroke="#495057" stroke-width="2" marker-end="url(#ah_13248)" />
<rect x="700" y="9770" width="130" height="70" fill="#ffc9c9" stroke="#e03131" stroke-width="2" rx="8" />
<text x="710" y="9796.0" font-size="14" font-family="monospace" fill="#e03131">Multi-Model</text>
<text x="710" y="9813.5" font-size="14" font-family="monospace" fill="#e03131">Embedding</text>
<defs><marker id="ah_14528" markerWidth="10" markerHeight="7" refX="10" refY="3.5" orient="auto"><polygon points="0 0,10 3.5,0 7" fill="#495057" /></marker></defs>
<polyline points="830,9805 860,9805" fill="none" stroke="#495057" stroke-width="2" marker-end="url(#ah_14528)" />
<rect x="860" y="9770" width="130" height="70" fill="#99e9f2" stroke="#0c8599" stroke-width="2" rx="8" />
<text x="870" y="9796.0" font-size="14" font-family="monospace" fill="#0c8599">Cosine Sim</text>
<text x="870" y="9813.5" font-size="14" font-family="monospace" fill="#0c8599">+ Ranx</text>
<defs><marker id="ah_15936" markerWidth="10" markerHeight="7" refX="10" refY="3.5" orient="auto"><polygon points="0 0,10 3.5,0 7" fill="#495057" /></marker></defs>
<polyline points="990,9805 1020,9805" fill="none" stroke="#495057" stroke-width="2" marker-end="url(#ah_15936)" />
<rect x="1020" y="9770" width="130" height="70" fill="#d8f5a2" stroke="#5c940d" stroke-width="2" rx="8" />
<text x="1030" y="9796.0" font-size="14" font-family="monospace" fill="#5c940d">Model</text>
<text x="1030" y="9813.5" font-size="14" font-family="monospace" fill="#5c940d">Rankings</text>
<text x="75" y="9859.0" font-size="11" font-family="monospace" fill="#868e96">PyMuPDF</text>
<text x="75" y="9872.75" font-size="11" font-family="monospace" fill="#868e96">pdfplumber</text>
<text x="235" y="9859.0" font-size="11" font-family="monospace" fill="#868e96">VL Model</text>
<text x="235" y="9872.75" font-size="11" font-family="monospace" fill="#868e96">Gemini API</text>
<text x="395" y="9859.0" font-size="11" font-family="monospace" fill="#868e96">Overlap</text>
<text x="395" y="9872.75" font-size="11" font-family="monospace" fill="#868e96">Windowing</text>
<text x="555" y="9859.0" font-size="11" font-family="monospace" fill="#868e96">GPT / Gemini</text>
<text x="555" y="9872.75" font-size="11" font-family="monospace" fill="#868e96">QA pairs</text>
<text x="715" y="9859.0" font-size="11" font-family="monospace" fill="#868e96">ST, Qwen3</text>
<text x="715" y="9872.75" font-size="11" font-family="monospace" fill="#868e96">OpenAI, llama</text>
<text x="875" y="9859.0" font-size="11" font-family="monospace" fill="#868e96">MRR, Recall</text>
<text x="875" y="9872.75" font-size="11" font-family="monospace" fill="#868e96">NDCG@k</text>
<text x="1035" y="9859.0" font-size="11" font-family="monospace" fill="#868e96">Statistical</text>
<text x="1035" y="9872.75" font-size="11" font-family="monospace" fill="#868e96">Tests (p&lt;0.05)</text>
<polyline points="765,9895 1085,9895" fill="none" stroke="#868e96" stroke-width="1" stroke-dasharray="6 4" />
<text x="795" y="9911.0" font-size="11" font-family="monospace" fill="#868e96">iterate: add models, tune chunk size</text>
</svg>